<svg width="13" height="13" viewBox="0 0 13 13" fill="none" xmlns="http://www.w3.org/2000/svg">
<g clip-path="url(#clip0_2826_3)">
<g clip-path="url(#clip1_2826_3)">
<path d="M2.51273 5.45284C3.05053 5.44333 3.5365 5.41575 4.01914 5.49896C4.07002 5.50752 4.12898 5.47947 4.18272 5.4633C4.44757 5.38341 4.71338 5.37248 4.98299 5.44143C5.21742 5.50134 5.4566 5.44998 5.69388 5.46758C6.06002 5.49468 6.42426 5.39578 6.78803 5.41432C7.08427 5.42954 7.38384 5.42478 7.67818 5.47091C7.82749 5.49421 7.96871 5.50229 8.12135 5.46378C8.2873 5.42241 8.45183 5.52179 8.62396 5.52179C8.81322 5.52179 8.99962 5.56934 9.18126 5.62355C9.38478 5.68394 9.43613 5.86843 9.28778 6.01822C9.06143 6.24694 8.76567 6.34727 8.45944 6.39197C8.20599 6.42906 7.94732 6.45045 7.69197 6.46377C7.42188 6.47756 7.14989 6.57076 6.87599 6.48041C6.82892 6.46472 6.77043 6.46139 6.72288 6.47423C6.40429 6.56173 6.07286 6.50276 5.75189 6.56553C5.65299 6.58502 5.54457 6.57837 5.44376 6.56268C5.30396 6.5408 5.16987 6.54461 5.03673 6.58835C4.8665 6.64446 4.69722 6.57314 4.52651 6.57646C4.3539 6.57979 4.18272 6.58597 4.01914 6.62734C3.76189 6.69296 3.50607 6.65635 3.25547 6.62972C3.02913 6.60595 2.81087 6.62592 2.58786 6.63162C2.37721 6.63733 2.15705 6.6554 1.94973 6.61879C1.71435 6.57694 1.61211 6.36201 1.52604 6.16562C1.44901 5.98969 1.55743 5.85987 1.67583 5.73339C1.85034 5.54651 2.05148 5.44665 2.31064 5.46425C2.39528 5.46995 2.48135 5.45426 2.51416 5.45236L2.51273 5.45284Z" fill="#1C1D1E"/>
<path d="M9.13513 9.84522C8.83651 9.8476 8.60731 9.58084 8.65724 9.2708C8.69005 9.06586 8.76518 8.87423 8.89833 8.7078C9.00056 8.57989 9.10422 8.45103 9.18839 8.31123C9.48177 7.82193 9.80322 7.35403 10.1884 6.93178C10.2221 6.89469 10.2497 6.84666 10.2664 6.79911C10.3657 6.51428 10.565 6.29792 10.7595 6.07919C10.8779 5.94605 10.8883 5.84714 10.7533 5.72922C10.5745 5.57277 10.4347 5.39398 10.3353 5.1781C10.2649 5.02594 10.1166 4.93749 10.0082 4.81624C9.85743 4.64743 9.76043 4.44106 9.65439 4.24658C9.50745 3.97697 9.2949 3.76204 9.12229 3.51572C8.94825 3.26751 8.80227 3.00408 8.69671 2.71925C8.67294 2.65505 8.65629 2.58658 8.64964 2.51858C8.63775 2.3902 8.71573 2.31031 8.81607 2.24802C8.91069 2.18906 8.9958 2.21378 9.07949 2.27607C9.24497 2.39923 9.42043 2.50432 9.54882 2.6774C9.71287 2.89804 9.96299 3.04402 10.1052 3.28748C10.4799 3.50098 10.6601 3.88519 10.9159 4.20426C11.0662 4.39161 11.2497 4.55376 11.4261 4.71829C11.5683 4.85095 11.6843 4.99598 11.7357 5.18666C11.7656 5.29745 11.8322 5.38685 11.894 5.48148C12.0414 5.70734 12.0319 5.93749 11.8874 6.16288C11.6739 6.49574 11.497 6.85237 11.2549 7.16715C11.0039 7.49383 10.8375 7.87994 10.545 8.17856C10.3672 8.3602 10.273 8.59368 10.1632 8.81859C10.0115 9.1291 9.83222 9.42392 9.57782 9.66357C9.43755 9.79529 9.30917 9.84427 9.13656 9.84569L9.13513 9.84522Z" fill="#1C1D1E"/>
</g>
</g>
<defs>
<clipPath id="clip0_2826_3">
<rect width="12" height="12" fill="white" transform="translate(0.75 0.0300293)"/>
</clipPath>
<clipPath id="clip1_2826_3">
<rect width="12" height="12" fill="white" transform="translate(0.75 0.0300293)"/>
</clipPath>
</defs>
</svg>
