<svg width="16" height="8" viewBox="0 0 16 8" fill="none" xmlns="http://www.w3.org/2000/svg">
<g clip-path="url(#clip0_47_6602)">
<g clip-path="url(#clip1_47_6602)">
<g clip-path="url(#clip2_47_6602)">
<path d="M0.42563 1.87122C0.420869 1.27315 0.955129 0.814121 1.57605 0.914116C1.98651 0.979827 2.3703 1.1303 2.70361 1.39696C2.95979 1.60171 3.21787 1.80931 3.49786 1.97788C4.47781 2.56547 5.4149 3.20924 6.26057 3.98064C6.33488 4.04825 6.43104 4.10349 6.52626 4.13682C7.09675 4.33586 7.53004 4.73488 7.96813 5.12439C8.23476 5.36152 8.43286 5.38247 8.66904 5.11201C8.98234 4.75393 9.34043 4.47394 9.77279 4.2749C10.0775 4.13396 10.2547 3.83683 10.4975 3.6197C10.8356 3.31781 11.2489 3.12354 11.6384 2.91117C12.1784 2.61689 12.6088 2.1912 13.1021 1.8455C13.5992 1.49695 14.1269 1.20458 14.6973 0.993167C14.8258 0.94555 14.963 0.912219 15.0992 0.898887C15.3563 0.875078 15.5163 1.03126 15.6411 1.2322C15.7591 1.42172 15.7096 1.59218 15.5849 1.75979C15.3382 2.0912 15.1277 2.44261 14.7811 2.69974C14.3392 3.02829 14.0469 3.52923 13.5592 3.81397C13.1316 4.56441 12.3622 4.92534 11.7231 5.4377C11.3479 5.73862 11.0232 6.10625 10.6937 6.45955C10.428 6.74432 10.1375 6.97669 9.75563 7.07952C9.53374 7.1395 9.35472 7.27284 9.16522 7.39663C8.71284 7.69189 8.25191 7.67281 7.80048 7.38333C7.13388 6.95573 6.41962 6.60144 5.78916 6.11673C5.13492 5.61388 4.36163 5.28057 3.76356 4.69489C3.39977 4.33871 2.93217 4.15015 2.48172 3.93016C1.85985 3.62636 1.2694 3.26733 0.789421 2.75783C0.525624 2.4769 0.42754 2.21977 0.424683 1.87407L0.42563 1.87122Z" fill="#1C1D1E"/>
</g>
</g>
</g>
<defs>
<clipPath id="clip0_47_6602">
<rect width="16" height="7.05" fill="white" transform="translate(0 0.839844)"/>
</clipPath>
<clipPath id="clip1_47_6602">
<rect width="16" height="7.05" fill="white" transform="translate(0 0.839844)"/>
</clipPath>
<clipPath id="clip2_47_6602">
<rect width="15.98" height="7.05" fill="white" transform="translate(0.0100098 0.839844)"/>
</clipPath>
</defs>
</svg>
