<svg width="55" height="36" viewBox="0 0 55 36" fill="none" xmlns="http://www.w3.org/2000/svg">
<g clip-path="url(#clip0_24_80)">
<path d="M0 9.059V13H5.628L0 9.059ZM4.664 31H13V25.163L4.664 31ZM23 25.164V31H31.335L23 25.164ZM0 23V26.941L5.63 23H0ZM31.337 5H23V10.837L31.337 5ZM36 26.942V23H30.369L36 26.942ZM36 13V9.059L30.371 13H36ZM13 5H4.664L13 10.837V5Z" fill="#00247D"/>
<path d="M25.14 23L34.852 29.801C35.3263 29.3124 35.6672 28.7101 35.842 28.052L28.627 23H25.14ZM13 23H10.859L1.14798 29.8C1.66898 30.33 2.33698 30.709 3.08598 30.885L13 23.943V23ZM23 13H25.141L34.852 6.19999C34.322 5.66227 33.6503 5.28602 32.915 5.11499L23 12.057V13ZM10.859 13L1.14798 6.19999C0.673936 6.68896 0.332797 7.29103 0.156982 7.94899L7.37198 13H10.859Z" fill="#CF1B2B"/>
<path d="M36 21H21V31H23V25.164L31.335 31H32C32.5313 31.0001 33.0572 30.8941 33.5469 30.6882C34.0367 30.4823 34.4804 30.1807 34.852 29.801L25.14 23H28.627L35.842 28.052C35.935 27.715 36 27.366 36 27V26.942L30.369 23H36V21ZM0 21V23H5.63L0 26.941V27C0 28.091 0.439 29.078 1.148 29.8L10.859 23H13V23.943L3.086 30.884C3.38 30.954 3.684 31 4 31H4.664L13 25.163V31H15V21H0ZM36 9C36.0006 7.95198 35.5881 6.94595 34.852 6.2L25.141 13H23V12.057L32.915 5.115C32.6155 5.04153 32.3084 5.00294 32 5H31.337L23 10.837V5H21V15H36V13H30.371L36 9.059V9ZM13 5V10.837L4.664 5H4C3.46862 4.99977 2.94257 5.10581 2.45278 5.3119C1.96299 5.51798 1.51936 5.81993 1.148 6.2L10.859 13H7.372L0.157 7.949C0.0577802 8.29071 0.00497341 8.64421 0 9L0 9.059L5.628 13H0V15H15V5H13Z" fill="#EEEEEE"/>
<path d="M21 15V5H15V15H0V21H15V31H21V21H36V15H21Z" fill="#CF1B2B"/>
</g>
<g filter="url(#filter0_d_24_80)">
<path fill-rule="evenodd" clip-rule="evenodd" d="M52.1667 17.375L46.5 23.0416L40.8334 17.375L42.25 15.9583L46.5 20.2083L50.75 15.9583L52.1667 17.375Z" fill="white"/>
</g>
<defs>
<filter id="filter0_d_24_80" x="40.8334" y="15.9583" width="11.3333" height="8.08337" filterUnits="userSpaceOnUse" color-interpolation-filters="sRGB">
<feFlood flood-opacity="0" result="BackgroundImageFix"/>
<feColorMatrix in="SourceAlpha" type="matrix" values="0 0 0 0 0 0 0 0 0 0 0 0 0 0 0 0 0 0 127 0" result="hardAlpha"/>
<feOffset dy="1"/>
<feComposite in2="hardAlpha" operator="out"/>
<feColorMatrix type="matrix" values="0 0 0 0 0 0 0 0 0 0 0 0 0 0 0 0 0 0 1 0"/>
<feBlend mode="normal" in2="BackgroundImageFix" result="effect1_dropShadow_24_80"/>
<feBlend mode="normal" in="SourceGraphic" in2="effect1_dropShadow_24_80" result="shape"/>
</filter>
<clipPath id="clip0_24_80">
<rect width="36" height="36" fill="white"/>
</clipPath>
</defs>
</svg>
