<svg width="22" height="22" viewBox="0 0 22 22" fill="none" xmlns="http://www.w3.org/2000/svg">
<path d="M20.905 16.7456C19.3466 16.8636 17.8252 16.9781 16.3593 17.0876C16.2549 18.3277 16.2195 19.5003 16.2481 20.7336C16.484 20.5432 16.6896 20.3882 16.8834 20.2197C17.2119 19.9333 17.5556 19.6603 17.8504 19.3403C18.0156 19.1616 18.2363 19.0589 18.3778 18.8382C18.521 18.6141 18.7855 18.4658 18.9978 18.2872C19.1393 18.1676 19.2758 18.0412 19.4308 17.9385C19.8739 17.6436 20.2834 17.2831 20.8208 17.1635C21.0466 17.1129 21.1207 17.1904 21.0399 17.4111C20.9657 17.6166 20.8697 17.8205 20.7433 17.9974C20.4922 18.3496 20.226 18.6933 19.9396 19.0185C19.7863 19.192 19.5825 19.3234 19.3954 19.4649C19.1831 19.625 18.9607 19.7699 18.7501 19.93C18.3154 20.2619 17.8875 20.6022 17.4528 20.9358C17.3181 21.0386 17.1732 21.1279 17.0266 21.2272C17.0384 21.234 17.0771 21.2576 17.1091 21.2778C16.9002 21.3991 16.6896 21.5322 16.4688 21.6468C16.2583 21.7563 16.0393 21.8506 15.8186 21.9399C15.7596 21.9635 15.6585 21.9686 15.618 21.9332C15.3704 21.7209 15.094 21.8254 14.8228 21.8321C14.3056 21.8456 13.79 21.8523 13.2728 21.859C12.7639 21.8658 12.2534 21.8861 11.7446 21.8725C11.4043 21.8642 11.0656 21.7984 10.7236 21.7765C10.4675 21.7614 10.2114 21.7748 9.95363 21.7765C9.6908 21.7782 9.42797 21.7799 9.16514 21.7833C8.50128 21.7883 7.8375 21.7917 7.17532 21.8001C6.73559 21.8052 6.29418 21.8321 5.85614 21.822C5.46022 21.8136 5.06422 21.7563 4.6683 21.7428C3.85959 21.7159 3.04919 21.726 2.24216 21.6754C1.77714 21.6451 1.31381 21.5407 0.858905 21.4311C0.740968 21.4025 0.656725 21.2306 0.557318 21.1245C0.666836 21.0403 0.767923 20.897 0.88586 20.8818C1.43175 20.8094 1.98269 20.7606 2.53363 20.7235C3.093 20.6864 3.65405 20.6611 4.21507 20.6544C4.5217 20.6511 4.83008 20.7235 5.13336 20.7083C5.6826 20.6797 6.22848 20.587 6.7794 20.5618C7.26461 20.5399 7.75324 20.5853 8.24181 20.5837C8.43558 20.5837 8.62934 20.5061 8.82142 20.5146C9.05731 20.5247 9.28984 20.5937 9.52566 20.6275C9.60823 20.6392 9.71102 20.6443 9.77673 20.6056C9.8458 20.5651 9.92501 20.469 9.92501 20.3966C9.91997 19.9872 9.89807 19.5778 9.86938 19.1701C9.84412 18.8314 9.78177 18.4928 9.77001 18.1541C9.75651 17.7532 9.58801 17.3504 9.77337 16.9528C9.83404 16.8214 9.91822 16.7018 10.0109 16.5434C9.94523 16.5889 9.9115 16.6125 9.89464 16.6243C9.56442 16.2739 9.84916 15.9082 9.84244 15.5493C9.83908 15.3539 9.85083 15.1585 9.8374 14.963C9.82893 14.8282 9.79024 14.6952 9.76155 14.5385C9.36562 14.5385 8.95116 14.5402 8.53501 14.5385C8.24524 14.5368 7.9554 14.5351 7.66564 14.5267C7.23095 14.5132 6.77772 14.5621 6.36829 14.4492C6.07348 14.3683 5.92016 14.5856 5.6826 14.5789C5.29507 14.5671 4.90587 14.6075 4.51834 14.6092C3.97753 14.6126 3.4367 14.6851 2.8925 14.6126C2.69537 14.5856 2.48477 14.6463 2.28259 14.6834C1.97258 14.7406 1.66425 14.8114 1.31886 14.8839C1.33908 15.1989 1.36604 15.5258 1.37784 15.8526C1.39637 16.3547 1.34582 16.8619 1.51936 17.3488C1.52273 17.3572 1.53284 17.3673 1.52947 17.3723C1.26327 17.7902 1.68616 18.1895 1.55811 18.6209C1.48904 18.855 1.59686 19.1364 1.56822 19.3908C1.53115 19.7244 1.45534 20.0563 1.35425 20.3764C1.32561 20.469 1.16386 20.5466 1.0493 20.5735C0.980215 20.5904 0.858905 20.518 0.80331 20.4506C0.516886 20.0933 0.498349 19.657 0.459603 19.2257C0.424217 18.8432 0.313019 18.4624 0.318078 18.0817C0.32313 17.7161 0.178232 17.3437 0.334921 16.9798C0.350085 16.9427 0.350085 16.8888 0.333235 16.8517C0.176545 16.4946 0.235521 16.1222 0.228782 15.7516C0.216984 15.1282 0.163068 14.5064 0.126002 13.8848C0.112525 13.6506 0.00975151 13.3625 0.109152 13.1923C0.304594 12.857 0.0771447 12.52 0.213618 12.1982C0.272587 12.0601 0.198455 11.8714 0.210245 11.7063C0.227096 11.4704 0.2709 11.2379 0.294489 11.002C0.328182 10.6819 0.346719 10.3618 0.385471 10.0416C0.439381 9.5884 0.511833 9.13692 0.565742 8.68369C0.59607 8.43429 0.601129 8.18161 0.624711 7.93054C0.628084 7.89009 0.683686 7.85308 0.685366 7.81431C0.690425 7.69297 0.729171 7.52111 0.666836 7.46219C0.523624 7.32567 0.462969 7.23134 0.597756 7.05276C0.643248 6.99377 0.62977 6.87587 0.616293 6.78826C0.555638 6.36364 0.469708 5.94246 0.42759 5.51785C0.409053 5.33087 0.493297 5.13711 0.49667 4.94671C0.50846 4.44631 0.481506 3.94256 0.510147 3.44216C0.528676 3.1052 0.592704 2.76654 0.673575 2.43969C0.73423 2.19539 0.93641 2.11114 1.18745 2.1162C1.29359 2.11788 1.40142 2.05723 1.50925 2.02859C1.68953 1.97973 1.86981 1.90222 2.05177 1.89548C2.72907 1.86853 3.40974 1.91402 4.0803 1.77755C4.10556 1.7725 4.14096 1.75396 4.15447 1.76575C4.46446 2.01006 4.78796 1.74048 5.10299 1.79608C5.37428 1.84494 5.40962 1.62255 5.40962 1.46248C5.40962 1.15416 5.36246 0.849203 5.52249 0.559413C5.56462 0.481908 5.53264 0.365657 5.56973 0.2831C5.65734 0.0859786 5.9117 0.0303762 6.03471 0.202229C6.15094 0.363971 6.2268 0.57289 6.26046 0.771705C6.30769 1.05138 6.29082 1.34117 6.32616 1.62422C6.33295 1.67814 6.45254 1.7607 6.51993 1.7607C6.93439 1.75733 7.35054 1.72195 7.765 1.72363C8.01607 1.72532 8.26883 1.7944 8.51983 1.79776C8.85347 1.80114 9.18705 1.76407 9.52062 1.75396C9.79359 1.74553 10.0665 1.75227 10.3142 1.75227C10.3142 1.32433 10.3108 0.911544 10.3159 0.497072C10.3176 0.362285 10.6427 0.124724 10.8196 0.119672C11.0252 0.112933 11.2594 0.325218 11.3049 0.525719C11.3958 0.938498 11.502 1.34791 11.6165 1.81461C12.9425 1.81461 14.292 1.81461 15.6298 1.81461C15.6989 1.38161 15.768 0.977251 15.8286 0.569524C15.8691 0.296577 16.1016 0.0371147 16.3526 0.101135C16.4992 0.138201 16.6559 0.35218 16.7064 0.515608C16.8294 0.921655 16.8935 1.34623 16.9811 1.7725C17.4276 1.82809 17.9128 1.86853 18.393 1.95109C18.9524 2.0488 19.5066 2.17517 20.0575 2.30827C20.2025 2.34365 20.3002 2.3605 20.4467 2.27457C20.777 2.07745 21.0904 2.29142 21.1696 2.70083C21.2808 3.27368 21.1915 3.84312 21.1881 4.41433C21.1847 4.86078 21.1713 5.30897 21.124 5.75374C21.0921 6.05701 20.9876 6.35357 20.9269 6.65516C20.9017 6.77811 20.9033 6.89609 21.0483 6.97523C21.4172 7.17578 21.4627 7.53797 21.4897 7.90696C21.5065 8.12934 21.5453 8.35011 21.552 8.57249C21.5638 8.90943 21.5554 9.24811 21.5604 9.58504C21.5672 10.0821 21.5806 10.5791 21.5824 11.0762C21.5824 11.4182 21.5571 11.7618 21.5604 12.1039C21.5672 12.6329 21.552 13.1637 21.712 13.6843C21.771 13.8763 21.7222 14.1071 21.6936 14.3178C21.6649 14.5318 21.6515 14.7221 21.7172 14.9479C21.798 15.2242 21.7778 15.5493 21.7272 15.8409C21.6682 16.1829 21.5385 16.5148 21.4189 16.8433C21.3835 16.9393 21.2723 17.0084 21.1965 17.0893C21.1257 17.0186 21.0499 16.9495 20.9842 16.8736C20.9438 16.8181 20.9118 16.7557 20.905 16.7456ZM1.63561 2.81709C1.63561 3.15743 1.64573 3.54157 1.63224 3.92569C1.6255 4.12282 1.55137 4.31826 1.55474 4.51538C1.56653 5.0276 1.64235 5.53975 1.49072 6.04693C1.43343 6.23902 1.44691 6.45125 1.40479 6.64837C1.36773 6.81856 1.38289 6.89945 1.58507 6.87251C1.98269 6.81856 2.38368 6.77475 2.78298 6.73095C3.57823 6.64166 4.37181 6.52711 5.17038 6.47316C5.70282 6.43782 6.23855 6.49842 6.77436 6.50353C7.38091 6.51024 7.98745 6.50688 8.594 6.49842C9.47514 6.48498 10.3547 6.4614 11.2358 6.44454C11.9838 6.43103 12.7319 6.41249 13.48 6.41249C13.7546 6.41249 14.0275 6.46812 14.3039 6.48498C14.6155 6.50521 14.9273 6.51024 15.2373 6.52032C15.4546 6.52711 15.6871 6.38555 15.8843 6.58778C16.0965 6.36532 16.3409 6.51024 16.5767 6.52032C17.1529 6.54222 17.7308 6.54222 18.3054 6.57763C18.8175 6.60793 19.3281 6.67706 19.8402 6.72423C19.9464 6.7343 20.0542 6.72591 20.1014 6.72591C20.093 6.26092 20.0879 5.83799 20.0761 5.4168C20.0593 4.80011 20.2379 4.19363 20.1553 3.57358C20.1486 3.5163 20.1738 3.45564 20.1806 3.39667C20.2126 3.11699 20.2446 2.83731 20.28 2.53404C19.6633 2.64692 19.0838 2.75475 18.5042 2.8609C18.3171 2.89459 18.1285 2.94345 17.9397 2.95356C17.6971 2.96704 17.4528 2.94514 17.2102 2.94345C16.8194 2.93839 16.4268 2.90301 16.0393 2.94008C15.4563 2.994 14.8767 2.86258 14.2904 2.97715C13.9467 3.04454 13.5761 2.97041 13.2172 2.95524C12.8263 2.93839 12.4371 2.9047 12.0479 2.90133C11.2459 2.8929 10.4439 2.9047 9.64364 2.90133C9.21399 2.89965 8.78434 2.87437 8.35476 2.87269C7.61001 2.871 6.86365 2.8929 6.12064 2.87774C5.4029 2.86426 4.68684 2.88616 3.9691 2.77328C3.58665 2.71263 3.18229 2.80867 2.78804 2.82046C2.39716 2.82552 2.00965 2.81709 1.63561 2.81709ZM10.9646 13.4653C11.192 13.4399 11.3807 13.4063 11.5694 13.4029C11.9957 13.3961 12.4219 13.4198 12.8482 13.4029C13.5406 13.3742 14.2314 13.3187 14.9239 13.2816C15.1716 13.2681 15.4192 13.2816 15.6669 13.2681C16.0881 13.2428 16.5144 13.3928 16.9322 13.2108C17.0165 13.1737 17.1394 13.2024 17.2389 13.2226C17.5152 13.2782 17.7797 13.5074 18.0695 13.2597C18.0847 13.2462 18.12 13.253 18.1453 13.253C18.5581 13.2597 18.9726 13.2546 19.3854 13.2765C19.5875 13.2866 19.7863 13.3591 19.9885 13.376C20.1368 13.3877 20.2867 13.3574 20.4265 13.3456C20.4265 13.0204 20.4248 12.7374 20.4265 12.456C20.4282 12.0146 20.4367 11.5715 20.4333 11.13C20.4316 10.938 20.3945 10.7476 20.4013 10.5572C20.4114 10.232 20.4484 9.90686 20.4603 9.58168C20.4754 9.14028 20.4957 8.69712 20.4822 8.25403C20.472 7.9171 20.4148 7.58178 20.3827 7.28361C19.9615 7.3729 19.601 7.46891 19.2337 7.52286C18.6878 7.602 18.1385 7.68457 17.5876 7.7048C17.1125 7.72166 16.6357 7.65252 16.1589 7.62055C16.11 7.61719 16.0628 7.60032 16.0157 7.60368C15.7056 7.61719 15.3973 7.65085 15.0873 7.64413C14.6745 7.63405 14.2617 7.58346 13.849 7.57002C13.5625 7.56156 13.2745 7.59528 12.9881 7.59193C12.5163 7.58857 12.0428 7.55316 11.5727 7.56492C11.2105 7.57338 10.8483 7.63405 10.4574 7.67443C10.3883 7.87162 10.7876 8.09736 10.545 8.33493C10.6023 8.41407 10.6747 8.4697 10.6849 8.53541C10.7354 8.8235 10.7809 9.11502 10.8061 9.40646C10.8432 9.83611 10.9005 10.2691 10.8735 10.6953C10.855 10.9835 10.8297 11.2514 10.8769 11.5479C10.9527 12.0315 10.9157 12.5319 10.9308 13.0255C10.9325 13.1637 10.9494 13.3035 10.9646 13.4653ZM9.80871 13.3928C9.80871 12.9749 9.79191 12.579 9.81382 12.1848C9.83404 11.8108 9.67562 11.4199 9.89975 11.061C9.90479 11.0526 9.87106 11.0239 9.86098 11.0037C9.82389 10.9279 9.75819 10.8503 9.75651 10.7712C9.74468 10.478 9.77169 10.1832 9.74979 9.89167C9.70766 9.35426 9.76833 8.837 9.91486 8.31974C9.98057 8.08721 9.97049 7.83453 9.9924 7.61887C9.68912 7.63573 9.40775 7.66267 9.12638 7.66267C8.70519 7.66267 8.28562 7.63741 7.86444 7.63405C7.27979 7.63062 6.69346 7.64581 6.10882 7.63909C5.78875 7.63573 5.46861 7.5801 5.14847 7.58346C4.62282 7.59025 4.09548 7.62726 3.5698 7.64581C3.18398 7.66099 2.79646 7.67107 2.40895 7.67786C2.09389 7.68289 1.78051 7.67954 1.47892 7.67954C1.52442 7.81599 1.62382 7.95923 1.58507 8.03165C1.50757 8.17657 1.548 8.28944 1.57665 8.42254C1.60192 8.54044 1.6154 8.66346 1.60697 8.78305C1.58844 9.07289 1.55137 9.36098 1.52442 9.65075C1.4705 10.232 1.40816 10.8133 1.36604 11.3945C1.34751 11.6675 1.38289 11.9438 1.37278 12.2184C1.36267 12.4813 1.32223 12.7424 1.30033 13.0052C1.27338 13.3119 1.25148 13.6186 1.22451 13.9572C1.56653 13.8662 1.84285 13.75 2.12927 13.7247C2.84701 13.6607 3.56812 13.6354 4.28924 13.6017C4.44256 13.595 4.61778 13.6708 4.74583 13.6186C5.06422 13.4888 5.38268 13.4956 5.70954 13.5124C5.76006 13.5158 5.81065 13.4972 5.86117 13.4939C6.06333 13.4855 6.26556 13.4653 6.46772 13.4753C6.81816 13.4905 7.1686 13.5494 7.51904 13.541C7.98913 13.5293 8.4558 13.4703 8.9259 13.4349C8.98489 13.4299 9.06067 13.4265 9.10279 13.4568C9.36226 13.6422 9.58801 13.5225 9.80871 13.3928ZM15.0991 21.2289C15.1311 21.1396 15.1682 21.0841 15.1682 21.0284C15.1699 20.5786 15.1665 20.1271 15.1631 19.6772C15.1597 19.138 15.1513 18.6006 15.1513 18.0615C15.1513 17.8104 15.1631 17.5594 15.1783 17.3083C15.1901 17.1011 15.2238 16.9208 15.0452 16.7288C14.8616 16.5333 15.1429 16.0346 15.4142 16.0026C15.731 15.9638 16.0443 15.9133 16.3611 15.8712C16.7182 15.8223 17.0704 15.7667 17.4343 15.8644C17.6297 15.9166 17.8488 15.9133 18.0543 15.8931C18.3879 15.8594 18.7181 15.7836 19.0517 15.7448C19.1882 15.7297 19.3297 15.7633 19.4695 15.7752C19.9447 15.6185 20.3372 16.0009 20.7854 16.0532C20.6995 15.4719 20.6186 14.9108 20.536 14.3548C17.3298 14.2183 14.1151 14.3043 10.8551 14.5199C10.8551 15.0068 10.8601 15.4634 10.8533 15.92C10.8483 16.1627 10.9611 16.4356 10.6849 16.6226C10.6528 16.6445 10.6647 16.7507 10.6781 16.8113C10.7085 16.9512 10.7826 17.0859 10.7859 17.2241C10.8028 17.802 10.8112 18.3816 10.8011 18.9595C10.7927 19.4464 10.8365 19.9468 10.5821 20.3983C10.5551 20.4455 10.5635 20.5129 10.5568 20.5651C10.8533 20.5988 11.1347 20.6342 11.4177 20.6611C11.4717 20.6662 11.5526 20.6645 11.5778 20.6325C11.689 20.4944 11.7901 20.5769 11.8962 20.6275C11.9569 20.6561 12.0176 20.6932 12.0816 20.7033C12.4741 20.7723 12.8684 20.8347 13.2626 20.8987C13.6047 20.9543 13.9484 21.0015 14.2904 21.0622C14.5583 21.1093 14.8245 21.1717 15.0991 21.2289Z" fill="#1C1D1E"/>
<path d="M4.41568 18.5129C4.97163 17.7985 5.47035 17.1313 6.00279 16.4894C6.17458 16.2822 6.42398 16.1373 6.64804 15.9772C6.84012 15.8407 7.04228 15.7127 7.25123 15.6049C7.47193 15.492 7.70614 15.4043 7.93867 15.3184C7.98415 15.3016 8.07008 15.3167 8.10038 15.3505C8.129 15.3824 8.12732 15.4667 8.10374 15.5105C7.97065 15.7716 7.8561 16.0463 7.68256 16.2772C7.50223 16.5181 7.25963 16.7118 7.05075 16.9325C6.87721 17.1162 6.70703 17.3049 6.54699 17.4986C6.38521 17.6941 6.24204 17.903 6.08194 18.1001C5.89153 18.3326 5.68937 18.5567 5.49897 18.7875C5.43837 18.8616 5.408 18.9644 5.34397 19.0352C5.06596 19.3384 4.78466 19.6687 4.36509 19.7412C4.06013 19.795 3.85123 19.5153 3.67264 19.3115C3.47889 19.0908 3.32894 18.8195 3.21268 18.5483C3.10822 18.3074 3.02566 18.0361 3.0223 17.7766C3.01724 17.3992 3.25648 17.379 3.52437 17.4447C3.83944 17.5222 3.93884 17.721 4.05006 17.9755C4.13263 18.1709 4.2893 18.3326 4.41568 18.5129Z" fill="#1C1D1E"/>
</svg>
