<svg width="22" height="23" viewBox="0 0 22 23" fill="none" xmlns="http://www.w3.org/2000/svg">
<path d="M9.75888 22.1175C9.71708 22.1375 9.66198 22.1459 9.65368 22.1709C9.53348 22.4797 9.23798 22.5615 8.97758 22.615C8.85738 22.64 8.66368 22.4664 8.54848 22.3412C8.34648 22.1208 8.24638 21.8454 8.17788 21.5465C8.11618 21.2778 7.98758 21.0157 7.84398 20.7769C7.73548 20.5983 7.68208 20.4147 7.66368 20.2177C7.63868 19.9472 7.51848 19.7135 7.41328 19.4731C7.35318 19.3362 7.30478 19.1927 7.25468 19.0508C7.24468 19.0224 7.23638 18.974 7.25138 18.9573C7.36658 18.8271 7.28978 18.7185 7.20128 18.6334C7.03268 18.4715 7.02098 18.2578 6.97258 18.0524C6.92083 17.8421 6.86407 17.6317 6.80898 17.4231C6.77726 17.3012 6.76223 17.171 6.70547 17.0625C6.58694 16.8304 6.38327 16.7086 6.13286 16.6284C5.87243 16.545 5.6287 16.4047 5.37494 16.2962C5.18129 16.2144 4.98096 16.146 4.78731 16.0658C4.51686 15.9523 4.23807 15.8705 3.98933 15.6919C3.794 15.5516 3.53357 15.5049 3.30319 15.4131C3.13291 15.343 2.9643 15.2662 2.79569 15.1927C2.55863 15.0892 2.33493 14.9707 2.05614 14.9757C1.77901 14.9807 1.62209 14.7937 1.54696 14.4932C1.51524 14.3647 1.45347 14.2361 1.55865 14.1276C1.66883 14.0158 1.78402 13.8789 1.92425 13.8305C2.52357 13.6268 3.10286 13.3647 3.64542 13.0559C4.1763 12.7537 4.7656 12.6068 5.29648 12.318C5.5686 12.1694 5.88746 12.0909 6.12952 11.9073C6.29313 11.7838 6.36324 11.5317 6.47175 11.3364C6.53352 11.2245 6.59028 11.1093 6.65372 10.9991C6.76056 10.8105 6.87241 10.6252 6.97926 10.4365C7.15288 10.1277 7.32818 9.81885 7.49348 9.50495C7.63038 9.24455 7.74888 8.97575 7.88238 8.71365C7.96258 8.55675 8.06608 8.41145 8.14448 8.25285C8.34988 7.83555 8.54188 7.41317 8.74888 6.99749C8.82058 6.85225 8.92748 6.72203 9.00758 6.58013C9.07268 6.46828 9.10108 6.32972 9.18288 6.23289C9.49838 5.85227 9.76218 5.93073 10.0994 6.15443C10.2764 6.27129 10.3348 6.43489 10.3565 6.66193C10.3799 6.89732 10.3899 7.13939 10.5251 7.38479C10.7255 7.74535 10.7722 8.18945 10.9174 8.58515C10.9992 8.80715 11.1495 9.00415 11.268 9.21285C11.278 9.22955 11.2947 9.24455 11.2981 9.26285C11.3415 9.44655 11.3699 9.63515 11.4283 9.81385C11.4984 10.0242 11.6036 10.2229 11.677 10.4332C11.7972 10.7804 11.9942 11.1026 12.0126 11.4849C12.0209 11.6669 12.1294 11.7654 12.3031 11.8339C12.7705 12.0208 13.2279 12.2345 13.6937 12.4298C14.0192 12.5667 14.3548 12.6836 14.6803 12.8205C14.8122 12.8756 14.9274 12.9674 15.0593 13.0225C15.3381 13.136 15.6252 13.2345 15.9057 13.343C15.9808 13.3714 16.0492 13.4198 16.1244 13.4498C16.3815 13.555 16.6352 13.6736 16.899 13.7537C17.1494 13.8305 17.318 13.9907 17.4198 14.2094C17.5567 14.5033 17.3864 14.9507 17.086 15.0992C16.9223 15.181 16.737 15.2194 16.5651 15.2862C16.1561 15.4481 15.7521 15.6234 15.3397 15.7754C15.1077 15.8622 14.8356 15.8722 14.6286 15.994C14.3581 16.1543 14.081 16.1743 13.7922 16.191C13.7571 16.1927 13.7221 16.2261 13.687 16.2428C13.4717 16.348 13.2546 16.4548 13.0393 16.56C13.0276 16.565 13.0109 16.565 13.0042 16.5733C12.8005 16.8271 12.495 16.802 12.2213 16.8421C11.9942 16.8755 11.9458 17.0558 11.8573 17.2077C11.8089 17.2912 11.7572 17.3713 11.7154 17.4581C11.6453 17.6067 11.5802 17.7586 11.5184 17.9089C11.4149 18.161 11.3181 18.4147 11.2113 18.6651C11.0994 18.9322 10.9842 19.1977 10.864 19.4598C10.7972 19.6033 10.7154 19.7386 10.6437 19.8805C10.627 19.9122 10.632 19.9539 10.6169 19.9873C10.5435 20.1626 10.4667 20.3379 10.3899 20.5132C10.3148 20.6868 10.2447 20.8621 10.1629 21.0324C10.1161 21.1275 10.0443 21.211 9.99588 21.3045C9.92748 21.438 9.86898 21.5783 9.80728 21.7152C9.78718 21.7619 9.78058 21.827 9.74548 21.852C9.63698 21.9389 9.67208 22.0173 9.75888 22.1175ZM9.43998 8.42315C9.37988 8.56345 9.30808 8.73705 9.22968 8.90895C9.20288 8.96575 9.15288 9.01245 9.12278 9.06925C9.07608 9.15435 9.04098 9.24615 8.99428 9.33135C8.87408 9.55675 8.75718 9.78205 8.63028 10.0025C8.52518 10.1845 8.32318 10.3531 8.31148 10.5367C8.29478 10.7921 8.16458 10.9574 8.05268 11.1511C7.91918 11.3814 7.71048 11.5718 7.68038 11.8589C7.67708 11.8956 7.64698 11.9307 7.62198 11.9607C7.52348 12.0809 7.36488 12.1844 7.33318 12.3197C7.22798 12.7687 6.79729 12.8422 6.50681 13.0492C6.22134 13.2512 5.89246 13.4465 5.51184 13.4716C5.49514 13.4732 5.48012 13.4966 5.46175 13.5033C5.17461 13.6268 4.8858 13.7453 4.602 13.8772C4.38164 13.9791 4.16795 14.0993 3.95093 14.2111C3.95427 14.2345 3.95761 14.2562 3.96094 14.2796C4.18632 14.3931 4.42004 14.4932 4.63706 14.6218C4.88914 14.772 5.25141 14.6735 5.43003 14.9807C5.4317 14.9857 5.44339 14.984 5.4484 14.9874C5.60866 15.0458 5.76893 15.1026 5.92752 15.1643C6.36324 15.338 6.79896 15.5133 7.23468 15.6885C7.27638 15.7052 7.31648 15.7253 7.35158 15.7537C7.69548 16.0291 7.72378 16.4715 7.91248 16.8288C7.91578 16.8338 7.90908 16.8421 7.91078 16.8488C7.95758 17.0775 7.97088 17.3196 8.06268 17.5299C8.15288 17.7369 8.09608 17.8671 7.96258 18.004C7.93418 18.0341 7.89908 18.0591 7.85068 18.1025C7.93248 18.1326 7.98588 18.1643 8.04268 18.1726C8.33478 18.216 8.34488 18.2494 8.39658 18.5165C8.44668 18.7686 8.52678 19.019 8.63368 19.2528C8.75888 19.5332 8.87408 19.8053 8.87908 20.1209C8.88068 20.236 8.96588 20.3512 9.02768 20.4965C9.07108 20.3813 9.08608 20.3162 9.11778 20.2594C9.19128 20.1275 9.27968 20.004 9.34818 19.8688C9.48508 19.6033 9.62028 19.3346 9.74378 19.0624C9.81728 18.9005 9.85238 18.7219 9.92408 18.5583C10.0427 18.2928 10.1796 18.0357 10.3014 17.7736C10.3682 17.6284 10.4116 17.4732 10.4851 17.3313C10.642 17.0274 10.8223 16.7369 10.864 16.3864C10.8724 16.3146 10.9258 16.2328 10.9842 16.186C11.3949 15.8555 11.8423 15.6051 12.3748 15.5199C12.5551 15.4916 12.7238 15.388 12.8957 15.3163C13.0526 15.2512 13.2096 15.1276 13.3665 15.1259C13.7905 15.1243 14.1044 14.7971 14.5351 14.7921C14.7788 14.7904 15.0209 14.6001 15.2796 14.4882C15.318 14.3213 15.1644 14.3096 15.0526 14.2662C14.8823 14.1994 14.7037 14.1493 14.5384 14.0725C14.3181 13.9707 14.1127 13.8372 13.8923 13.7403C13.5368 13.5851 13.1695 13.4532 12.8106 13.3029C12.4233 13.1393 12.0443 12.9507 11.6537 12.7988C11.3782 12.6919 11.1578 12.5217 10.9542 12.3213C10.9191 12.2863 10.9007 12.2228 10.8957 12.1711C10.869 11.8255 10.7972 11.4883 10.6871 11.1594C10.6119 10.9357 10.5168 10.7187 10.43 10.4983C10.3215 10.2245 10.2129 9.95065 10.1044 9.67695C10.0093 9.43815 9.90578 9.20275 9.82228 8.96075C9.75218 8.75035 9.79558 8.48165 9.43998 8.42315Z" fill="#1C1D1E"/>
<path d="M13.7331 6.25475C13.7581 6.17128 13.7581 6.06945 13.8032 6.04274C13.9451 5.96093 14.097 5.88748 14.254 5.84574C14.5361 5.77062 14.8132 5.69884 15.0636 5.53857C15.1538 5.48014 15.274 5.47013 15.3775 5.43173C15.4109 5.42004 15.4626 5.37998 15.461 5.36161C15.4109 5.02773 15.718 4.84242 15.7932 4.56029C15.8399 4.38333 15.905 4.20804 15.9835 4.0411C16.0686 3.86247 16.1788 3.69386 16.2806 3.52191C16.2873 3.51189 16.3107 3.50355 16.309 3.49687C16.279 3.2331 16.5377 3.10623 16.5945 2.87751C16.6629 2.6054 17.1471 2.30323 17.4409 2.31659C17.486 2.31826 17.5377 2.32828 17.5728 2.35332C17.8265 2.5453 18.0218 2.76066 18.0235 3.11624C18.0252 3.30489 18.1253 3.49186 18.1754 3.68051C18.2372 3.90922 18.4075 4.11789 18.2923 4.37832C18.2773 4.41338 18.2973 4.47014 18.3107 4.51355C18.3824 4.72389 18.4309 4.94927 18.5444 5.13457C18.6078 5.23808 18.7764 5.28649 18.905 5.33991C19.1971 5.46345 19.4943 5.56695 19.6996 5.83406C19.728 5.87079 19.8282 5.84574 19.8766 5.87746C20.0151 5.96761 20.1337 6.08781 20.2789 6.16293C20.4074 6.22971 20.5627 6.24641 20.7013 6.29649C20.7998 6.33155 20.8916 6.3833 20.9851 6.43004C21.0068 6.44006 21.0235 6.46677 21.0435 6.47011C21.4108 6.52854 21.6178 6.81401 21.8448 7.05607C21.96 7.17961 21.9567 7.37827 21.8365 7.5135C21.5877 7.79225 21.3323 8.05775 20.9216 8.11615C20.5327 8.17295 20.1554 8.27305 19.8031 8.48005C19.6228 8.58695 19.3741 8.57195 19.1571 8.62195C18.9868 8.66035 18.8165 8.70045 18.6546 8.76385C18.5778 8.79395 18.491 8.86405 18.4592 8.93755C18.2923 9.31985 18.1387 9.70715 17.9885 10.0944C17.9167 10.2814 17.8599 10.4733 17.7981 10.6653C17.7798 10.7221 17.7614 10.7838 17.7614 10.8424C17.7564 11.0728 17.723 11.2847 17.5427 11.46C17.4075 11.5918 17.3057 11.7571 17.1788 11.8973C17.0636 12.0242 16.9117 11.9491 16.7714 11.9591C16.5611 11.9758 16.5377 11.8589 16.4609 11.7137C16.3641 11.5317 16.1922 11.3882 16.2322 11.1511C15.9952 10.9875 16.0119 10.6887 15.8733 10.4717C15.8633 10.455 15.8499 10.4383 15.8449 10.4183C15.7798 10.1912 15.718 9.96425 15.6529 9.73715C15.5628 9.42165 15.476 9.10445 15.3792 8.79065C15.3625 8.73555 15.314 8.66535 15.264 8.64875C14.9368 8.54515 14.6062 8.45005 14.274 8.36325C14.1939 8.34155 14.102 8.35825 14.0169 8.36155C13.7698 8.36825 13.5662 8.23965 13.3425 8.16455C13.2089 8.12115 13.057 8.11945 12.9134 8.12285C12.4794 8.12955 12.2123 7.80235 12.1154 7.5352C12.032 7.30816 12.1488 7.07611 12.3007 6.89414C12.4026 6.77394 12.5211 6.63872 12.6613 6.5853C13.0086 6.46009 13.3074 6.16961 13.7331 6.25475ZM17.117 4.72223C16.9701 4.90753 16.8349 5.09117 16.7631 5.32655C16.6813 5.59867 16.5962 5.87412 16.476 6.13122C16.3374 6.43004 16.0636 6.55692 15.7448 6.58697C15.6362 6.59698 15.516 6.57027 15.4209 6.60867C15.1488 6.72219 14.8883 6.86242 14.6246 6.99264C14.5211 7.04439 14.4192 7.09948 14.2673 7.17794C14.6129 7.21133 14.895 7.23971 15.1938 7.26809C15.2022 7.28145 15.2172 7.34155 15.2523 7.3549C15.4326 7.43003 15.6162 7.49513 15.7982 7.56358C16.0235 7.64705 16.2339 7.75555 16.3591 7.97425C16.4275 8.09275 16.486 8.21795 16.5327 8.34485C16.6145 8.56695 16.693 8.79065 16.7564 9.01935C16.7965 9.16125 16.8082 9.31145 16.8332 9.45835C16.8599 9.46005 16.8866 9.46175 16.9133 9.46335C17.0152 9.24805 17.1204 9.03435 17.2172 8.81735C17.3123 8.60195 17.3708 8.36325 17.496 8.16795C17.7447 7.77895 18.1688 7.66708 18.5894 7.56859C18.6262 7.56024 18.6863 7.57527 18.713 7.60198C18.8666 7.75725 18.8833 7.63202 18.8983 7.50181C19.2389 7.52184 19.5227 7.42502 19.7163 7.1095C19.5978 7.07277 19.4809 7.04773 19.3741 6.99765C19.2706 6.94923 19.1804 6.87077 19.0786 6.81234C18.8916 6.7055 18.7046 6.59865 18.5143 6.50183C18.4008 6.44507 18.2806 6.37328 18.1604 6.36493C17.8349 6.34156 17.5427 6.10617 17.4759 5.78898C17.4459 5.65042 17.3925 5.51687 17.3457 5.38165C17.2723 5.16963 17.1988 4.95761 17.117 4.72223Z" fill="#1C1D1E"/>
<path d="M8.0025 5.83263C7.9474 5.72412 7.8973 5.62729 7.8405 5.51711C7.6369 5.60225 7.7287 5.78589 7.707 5.91276C7.4766 6.0363 7.2629 6.16819 7.0342 6.26668C6.88229 6.33179 6.69698 6.31843 6.54841 6.38688C6.32637 6.48871 6.0409 6.49539 5.89399 6.7191C5.79216 6.87435 5.73206 7.06133 5.68532 7.24329C5.64692 7.38853 5.56178 7.46032 5.43323 7.49537C5.3147 7.52876 5.27798 7.5705 5.34809 7.69403C5.37814 7.74743 5.34976 7.84763 5.32305 7.91603C5.21287 8.18313 5.09768 8.44863 4.97581 8.71243C4.83057 9.02453 4.485 9.33173 4.1411 9.23993C4.00755 9.20483 3.84228 9.12143 3.78385 9.00953C3.67366 8.79583 3.44495 8.62723 3.47667 8.34513C3.48001 8.31843 3.45664 8.27333 3.43327 8.25833C3.25798 8.14473 3.28803 7.96953 3.27968 7.79923C3.27467 7.69733 3.22626 7.59554 3.19287 7.49704C3.18118 7.46032 3.14446 7.4286 3.13778 7.39187C3.03594 6.87602 2.63028 6.67235 2.21292 6.47202C2.07603 6.40691 1.96585 6.28838 1.83897 6.20157C1.74214 6.1348 1.63697 6.07971 1.53514 6.01961C1.31978 5.89273 1.1061 5.76085 0.887399 5.63898C0.727139 5.54883 0.553519 5.48038 0.396589 5.38523C0.157859 5.23999 -0.0107506 4.78424 0.0944294 4.54384C0.141169 4.437 0.234659 4.33015 0.334819 4.26839C0.555189 4.13149 0.75385 3.96455 1.04933 3.95287C1.25133 3.94452 1.44833 3.79928 1.64866 3.71915C1.76719 3.67073 1.88571 3.60396 2.00758 3.58893C2.38988 3.54386 2.72376 3.46706 2.96583 3.10313C3.12943 2.85605 3.25464 2.60397 3.3715 2.33686C3.5134 2.01133 3.72375 1.72419 3.97249 1.46543C4.10771 1.3252 4.22791 1.16493 4.32474 0.99632C4.49001 0.71085 4.76046 0.72087 5.00586 0.76761C5.18115 0.801 5.35644 0.9212 5.49166 1.0464C5.57847 1.12653 5.59016 1.28513 5.6369 1.40867C5.69366 1.56559 5.75543 1.72085 5.80718 1.87944C5.84558 1.9963 5.87563 2.1165 5.899 2.23837C5.94741 2.50047 5.98748 2.76591 6.03089 3.02967C6.04257 3.09812 6.04257 3.17992 6.08097 3.23001C6.15108 3.32182 6.23956 3.40529 6.33472 3.47374C6.43989 3.54886 6.55842 3.60896 6.67528 3.66572C6.74707 3.70078 6.8272 3.71915 6.90566 3.74586C6.92403 3.75253 6.95574 3.7492 6.96075 3.75921C7.131 4.09643 7.5367 3.94619 7.7704 4.15153C7.9975 4.35019 8.2746 4.51546 8.4365 4.75753C8.535 4.9061 8.6369 5.14483 8.5233 5.38022C8.4265 5.57721 8.2479 5.75751 8.0025 5.83263ZM6.69365 5.09308C6.68864 5.06971 6.68196 5.04633 6.67695 5.02296C6.64022 5.01295 6.59682 5.01295 6.56677 4.99124C6.33472 4.83432 6.15108 4.59559 5.83723 4.57723C5.7955 4.57556 5.76044 4.50878 5.71703 4.47873C5.65694 4.43867 5.59517 4.38024 5.53006 4.3769C5.36479 4.36688 5.30302 4.27339 5.2713 4.13149C5.26295 4.09644 5.2329 4.06639 5.2112 4.03467C5.16947 3.9729 5.1077 3.91781 5.08432 3.84936C4.96079 3.48543 4.84727 3.11815 4.73041 2.75255C4.7037 2.75255 4.67699 2.75255 4.65028 2.75422C4.43826 3.09645 4.19285 3.42533 4.02257 3.78759C3.87733 4.0981 3.6553 4.30845 3.35981 4.40528C2.97251 4.53215 2.63695 4.80093 2.20958 4.81596C2.18454 4.81762 2.1378 4.91445 2.1428 4.91779C2.31642 5.06303 2.48504 5.21829 2.67702 5.33515C2.85899 5.447 3.071 5.51043 3.26132 5.6106C3.34145 5.65234 3.39153 5.76586 3.47333 5.79257C3.92241 5.93781 4.11272 6.26 4.15947 6.70574C4.1795 6.89271 4.24461 7.07468 4.30137 7.30506C4.37983 7.1064 4.41989 6.96283 4.48834 6.83428C4.65194 6.52377 4.84894 6.22995 4.99084 5.9111C5.09434 5.67905 5.22289 5.53381 5.48165 5.50877C5.59851 5.49875 5.7137 5.46536 5.82889 5.43197C5.96578 5.39358 6.10434 5.35017 6.23622 5.29842C6.38814 5.23832 6.54006 5.16319 6.69365 5.09308Z" fill="#1C1D1E"/>
</svg>
