<svg width="19" height="19" viewBox="0 0 19 19" fill="none" xmlns="http://www.w3.org/2000/svg">
<path d="M18.1824 11.4065C18.3771 11.5638 18.5701 11.7195 18.7617 11.8737C18.7586 11.897 18.7555 11.9204 18.7508 11.9453C18.5764 11.9515 18.4005 11.9687 18.226 11.964C18.0562 11.9594 17.8834 11.9017 17.7183 11.922C17.5657 11.9407 17.4272 12.0481 17.2746 12.0902C16.8992 12.1914 16.6641 12.5013 16.3526 12.6959C16.0505 12.8859 15.7795 13.1273 15.5023 13.3547C15.4759 13.3765 15.4821 13.4964 15.5133 13.5213C16.0894 13.9854 16.6703 14.4416 17.2512 14.8979C17.3275 14.9571 17.4131 15.0038 17.4879 15.0645C17.8772 15.3791 17.9691 15.9133 17.6732 16.3228C17.4272 16.6654 17.1608 16.9987 16.8697 17.3039C16.6812 17.5001 16.4118 17.6169 16.2172 17.8084C16.0505 17.972 15.8964 18.1028 15.6503 18.109C15.4572 18.1137 15.2719 18.0202 15.2454 17.8287C15.2189 17.6294 15.0975 17.5203 14.9651 17.3911C14.5773 17.0174 14.2036 16.6296 13.8392 16.2341C13.5838 15.9553 13.3533 15.6547 13.1337 15.3915C12.8971 15.7295 12.6012 16.0503 12.4252 16.4256C12.1885 16.9286 11.74 17.2556 11.4769 17.7305C11.3086 18.0342 10.9645 18.1323 10.6375 18.2024C10.5191 18.2289 10.4117 18.1806 10.4272 18.0186C10.4381 17.9112 10.4506 17.8022 10.4475 17.6948C10.4444 17.6278 10.4179 17.5592 10.3946 17.4939C10.3572 17.3958 10.3027 17.3054 10.2715 17.2058C10.1391 16.7931 10.0239 16.3758 9.87911 15.9677C9.77785 15.6828 9.63308 15.4134 9.51937 15.1331C9.49445 15.0708 9.51622 14.9914 9.51783 14.9182C9.51783 14.8776 9.52867 14.8044 9.51622 14.7998C9.24219 14.7048 9.31693 14.4261 9.22351 14.2392C9.02884 13.8498 8.8653 13.4434 8.694 13.0416C8.6551 12.9497 8.64572 12.8439 8.61612 12.7473C8.53831 12.4997 8.47442 12.2459 8.37323 12.0077C8.25022 11.718 8.0384 11.4579 7.96052 11.1605C7.77214 10.4364 7.35012 9.80413 7.18505 9.07065C7.11808 8.77633 6.94517 8.50846 6.84868 8.21883C6.67269 7.68779 6.52945 7.14744 6.34723 6.61793C6.24129 6.30962 6.22575 5.95925 5.96726 5.71007C5.94235 5.6867 5.97811 5.54031 6.01555 5.52477C6.18839 5.45312 6.21484 5.32695 6.2226 5.16349C6.22729 5.07938 6.2958 4.99681 6.33631 4.91431C6.40951 4.95013 6.49985 4.97036 6.55275 5.02641C6.67269 5.14789 6.76456 5.29581 6.88604 5.41575C7.01683 5.545 7.16014 5.66487 7.31114 5.76766C7.46222 5.87045 7.62107 5.97171 7.79237 6.0293C8.65664 6.31893 9.38389 6.87488 10.2046 7.24708C10.6998 7.47135 11.1747 7.74076 11.6637 7.98057C12.4361 8.35739 13.2163 8.71713 13.9856 9.10179C14.5119 9.36497 15.0212 9.66705 15.5444 9.93646C15.9898 10.1654 16.446 10.3725 16.8961 10.5905C16.9693 10.6263 17.0425 10.6669 17.111 10.7105C17.3088 10.8366 17.5159 10.7852 17.7215 10.6746C17.846 10.6077 18.0438 10.6435 18.1996 10.6762C18.3475 10.7073 18.3646 10.8584 18.3335 10.9829C18.2961 11.1325 18.2307 11.2742 18.1824 11.4065ZM16.5364 11.4065C16.4009 11.3442 16.2794 11.2944 16.1626 11.2321C15.8746 11.0795 15.5927 10.9129 15.2999 10.768C14.9246 10.5812 14.5369 10.4161 14.1615 10.2292C13.3892 9.84458 12.6245 9.44747 11.8521 9.06288C11.3834 8.82923 10.9038 8.61903 10.4366 8.38391C9.84328 8.08644 9.25773 7.77344 8.66755 7.46821C8.26106 7.258 7.85311 7.04933 7.40302 6.81883C7.56656 7.27199 7.71602 7.66134 7.84996 8.05684C7.93407 8.30602 7.98235 8.5692 8.07108 8.81678C8.19256 9.1563 8.34049 9.48798 8.47134 9.82436C8.56007 10.0517 8.63949 10.2837 8.72983 10.5111C8.79057 10.6669 8.86376 10.8163 8.93073 10.9689C8.9541 11.0235 8.98055 11.0764 9.00078 11.1309C9.0802 11.3474 9.13317 11.5763 9.24058 11.7772C9.34652 11.9765 9.33407 12.1992 9.44463 12.4032C9.65953 12.7987 9.81214 13.227 9.98806 13.6428C10.0769 13.853 10.1719 14.0601 10.2497 14.275C10.3961 14.6799 10.5269 15.091 10.6764 15.4928C10.7496 15.6906 10.8586 15.8758 10.9427 16.0705C10.9692 16.1297 10.9645 16.2014 10.977 16.2667C11.0034 16.4131 11.0299 16.5595 11.0579 16.7044C11.0907 16.7106 11.1218 16.7168 11.1545 16.7246C11.3086 16.4816 11.452 16.2325 11.617 15.9973C11.9596 15.5068 12.3224 15.0319 12.6541 14.535C12.7522 14.3887 12.8347 14.3637 12.9609 14.451C13.2537 14.655 13.5511 14.8527 13.8236 15.0817C14.1538 15.3604 14.459 15.6688 14.7751 15.9631C15.1146 16.2792 15.4557 16.5922 15.8185 16.9286C16.2032 16.5595 16.6111 16.1686 17.0254 15.7715C17.0067 15.7435 16.9927 15.6983 16.9646 15.6843C16.6656 15.5332 16.3791 15.3744 16.1611 15.1035C15.9617 14.8559 15.7172 14.6456 15.5102 14.4027C15.3871 14.2579 15.3233 14.0601 15.1909 13.9293C15.0258 13.7673 14.8281 13.6256 14.6225 13.5182C14.4107 13.4092 14.3453 13.3266 14.4917 13.1367C14.596 13.0012 14.7673 12.9186 14.9013 12.805C15.1597 12.5838 15.4105 12.3518 15.6706 12.1307C15.9462 11.8908 16.2328 11.6572 16.5364 11.4065Z" fill="#1C1D1E"/>
<path d="M5.45958 3.57204C5.37232 3.67476 5.31788 3.804 5.23223 3.82738C5.10914 3.86166 4.93477 3.86635 4.83512 3.80247C4.58594 3.63893 4.43955 3.38359 4.35859 3.09389C4.18729 2.48657 3.81663 1.98205 3.50677 1.44634C3.35262 1.17849 3.18594 0.904412 3.37907 0.602299C3.46941 0.460591 3.62979 0.307975 3.77926 0.279949C3.88828 0.259698 4.08449 0.407641 4.15461 0.530665C4.35705 0.887281 4.5112 1.27036 4.69181 1.63788C4.78215 1.82167 4.91762 1.98674 4.98774 2.17672C5.15743 2.63296 5.30074 3.0955 5.45958 3.57204Z" fill="#1C1D1E"/>
<path d="M1.76257 6.27069C1.95567 6.2427 2.14877 6.20687 2.34342 6.18665C2.65021 6.15551 2.95854 6.13682 3.26531 6.1103C3.3821 6.101 3.49889 6.09477 3.6126 6.06825C3.86332 6.0122 4.2246 6.14928 4.36008 6.36257C4.48463 6.56039 4.40059 6.85316 4.16541 6.92006C3.88354 6.99948 3.59077 7.04938 3.2996 7.08359C3.01774 7.11788 2.73274 7.12411 2.44932 7.12719C2.28114 7.1288 2.11295 7.08674 1.94476 7.08828C1.77814 7.08828 1.60372 7.09451 1.44489 7.13964C1.19884 7.20976 0.904514 7.13188 0.846896 6.93259C0.769034 6.66157 0.825092 6.44045 1.149 6.35949C1.34989 6.30812 1.55701 6.28314 1.76101 6.24739C1.76101 6.25361 1.76101 6.26138 1.76257 6.27069Z" fill="#1C1D1E"/>
<path d="M10.3337 1.18164C10.4973 1.2704 10.6358 1.32023 10.7418 1.409C10.8944 1.53358 10.8694 1.68149 10.7012 1.80143C10.6716 1.82326 10.6281 1.84034 10.6156 1.86994C10.4957 2.15341 10.2294 2.30287 10.0425 2.51777C9.84321 2.74666 9.53328 2.7934 9.36044 3.06281C9.20314 3.3073 8.94157 3.48329 8.72975 3.69196C8.54754 3.87257 8.20963 3.87879 8.071 3.67174C8.01649 3.58763 8.01495 3.40541 8.071 3.32445C8.23608 3.08464 8.41829 2.84637 8.63473 2.65324C9.01008 2.32002 9.41964 2.0257 9.80584 1.70486C9.8868 1.63792 9.91948 1.51178 9.99582 1.43703C10.0939 1.34204 10.2138 1.2704 10.3337 1.18164Z" fill="#1C1D1E"/>
</svg>
