<svg width="34" height="24" viewBox="0 0 34 24" fill="none" xmlns="http://www.w3.org/2000/svg">
<g filter="url(#filter0_d_24_72)">
<path fill-rule="evenodd" clip-rule="evenodd" d="M31.1667 11.375L25.5 17.0416L19.8334 11.375L21.25 9.95829L25.5 14.2083L29.75 9.95829L31.1667 11.375Z" fill="white"/>
</g>
<path d="M0.609375 19V5.25H6.10938V7.90625H3.40625V10.5859H6V13.1719H3.40625V16.3203H6.28906V19H0.609375ZM7.15625 19V7.28125H9.95312V8.77344C10.0573 8.32552 10.25 7.94531 10.5312 7.63281C10.8177 7.3151 11.2135 7.15625 11.7188 7.15625C12.5312 7.15625 13.1198 7.40625 13.4844 7.90625C13.8542 8.40625 14.0391 9.09115 14.0391 9.96094V19H11.2812V10.25C11.2812 10.0208 11.2344 9.8099 11.1406 9.61719C11.0469 9.41927 10.8854 9.32031 10.6562 9.32031C10.4427 9.32031 10.2839 9.39583 10.1797 9.54688C10.0807 9.69271 10.0182 9.8776 9.99219 10.1016C9.96615 10.3203 9.95312 10.5391 9.95312 10.7578V19H7.15625Z" fill="white"/>
<defs>
<filter id="filter0_d_24_72" x="19.8334" y="9.95825" width="11.3333" height="8.08337" filterUnits="userSpaceOnUse" color-interpolation-filters="sRGB">
<feFlood flood-opacity="0" result="BackgroundImageFix"/>
<feColorMatrix in="SourceAlpha" type="matrix" values="0 0 0 0 0 0 0 0 0 0 0 0 0 0 0 0 0 0 127 0" result="hardAlpha"/>
<feOffset dy="1"/>
<feComposite in2="hardAlpha" operator="out"/>
<feColorMatrix type="matrix" values="0 0 0 0 0 0 0 0 0 0 0 0 0 0 0 0 0 0 1 0"/>
<feBlend mode="normal" in2="BackgroundImageFix" result="effect1_dropShadow_24_72"/>
<feBlend mode="normal" in="SourceGraphic" in2="effect1_dropShadow_24_72" result="shape"/>
</filter>
</defs>
</svg>
